<svg xmlns="http://www.w3.org/2000/svg" viewBox="0 0 240 240">
  <g transform="translate(120 120) rotate(-20)">
    <path d="M 0 -100 C 40 -90, 70 -40, 60 30 C 50 80, 10 100, -10 90 C -30 80, -50 40, -50 -10 C -50 -50, -30 -90, 0 -100 Z" fill="#3A8F3F" stroke="#2a1a06" stroke-width="5"></path>
    <path d="M 0 -90 L 0 80" stroke="#2a1a06" stroke-width="3" fill="none"></path>
    <g stroke="#2a1a06" stroke-width="2.5" fill="none">
      <path d="M 0 -60 Q -22 -40 -32 -10"></path>
      <path d="M 0 -30 Q -25 -10 -38 30"></path>
      <path d="M 0 0  Q -22 22 -28 60"></path>
      <path d="M 0 -60 Q 22 -40 32 -10"></path>
      <path d="M 0 -30 Q 25 -10 38 30"></path>
      <path d="M 0 0  Q 22 22 28 60"></path>
    </g>
  </g>
</svg>