<svg xmlns="http://www.w3.org/2000/svg" viewBox="0 0 320 320">
  
  <circle cx="160" cy="160" r="148" fill="#D9342B" stroke="#2a1a06" stroke-width="8"></circle>
  <circle cx="160" cy="160" r="128" fill="none" stroke="#fff" stroke-width="4" stroke-dasharray="6 6"></circle>
  
  <g transform="translate(160 130)">
    <path d="M 0 -40 C -32 -38, -52 -14, -50 14 C -48 38, -22 52, 0 50 C 26 48, 52 36, 52 12 C 52 -16, 32 -42, 0 -40 Z" fill="#FFD93D" stroke="#2a1a06" stroke-width="5"></path>
    <path d="M 12 -38 Q 24 -54 40 -48 Q 32 -32, 16 -32 Z" fill="#3A8F3F" stroke="#2a1a06" stroke-width="4"></path>
  </g>
  
  <text x="160" y="232" text-anchor="middle" font-family="Impact, &#39;Arial Black&#39;, sans-serif" font-weight="900" font-size="60" fill="#fff" stroke="#2a1a06" stroke-width="5" paint-order="stroke" letter-spacing="2">RMCH</text>
  
  <g fill="#FFD93D" stroke="#2a1a06" stroke-width="2">
    <polygon points="40,160 46,172 58,174 49,184 51,196 40,190 29,196 31,184 22,174 34,172"></polygon>
    <polygon points="280,160 286,172 298,174 289,184 291,196 280,190 269,196 271,184 262,174 274,172"></polygon>
  </g>
  
  <defs>
    <path id="arc" d="M 40 260 Q 160 290 280 260" fill="none"></path>
  </defs>
  <text font-family="Impact, sans-serif" font-size="22" font-weight="900" fill="#fff" stroke="#2a1a06" stroke-width="3" paint-order="stroke" letter-spacing="2">
    <textPath href="#arc" startOffset="50%" text-anchor="middle"></textPath>
  </text>
</svg>