<svg xmlns="http://www.w3.org/2000/svg" xmlns:xlink="http://www.w3.org/1999/xlink" viewBox="0 0 1080 1920" width="1080" height="1920">
  <defs>
    <pattern id="halftone" x="0" y="0" width="80" height="80" patternUnits="userSpaceOnUse">
      <rect width="80" height="80" fill="#FFC629"></rect>
      <g fill="#E89B1F" opacity="0.85">
        <circle cx="10" cy="10" r="3"></circle><circle cx="30" cy="10" r="2.2"></circle>
        <circle cx="50" cy="10" r="3"></circle><circle cx="70" cy="10" r="2.2"></circle>
        <circle cx="20" cy="30" r="2.5"></circle><circle cx="40" cy="30" r="3.2"></circle><circle cx="60" cy="30" r="2.5"></circle>
        <circle cx="10" cy="50" r="2.2"></circle><circle cx="30" cy="50" r="3"></circle>
        <circle cx="50" cy="50" r="2.2"></circle><circle cx="70" cy="50" r="3"></circle>
        <circle cx="20" cy="70" r="3.2"></circle><circle cx="40" cy="70" r="2.5"></circle><circle cx="60" cy="70" r="3.2"></circle>
      </g>
    </pattern>
  </defs>

  
  <rect width="1080" height="1920" fill="url(#halftone)"></rect>

  
  <image href="hoja-tropical.svg" x="-60" y="-40" width="360" height="360" transform="rotate(20 120 140)"></image>
  <image href="hoja-tropical.svg" x="780" y="1620" width="360" height="360" transform="rotate(200 960 1800)"></image>

  
  <text x="540" y="220" text-anchor="middle" font-family="Impact, &#39;Arial Black&#39;, sans-serif" font-weight="900" font-size="68" fill="#fff" stroke="#2a1a06" stroke-width="8" paint-order="stroke" letter-spacing="3">
    SOY HABITANTE DE
  </text>
  <text x="540" y="300" text-anchor="middle" font-family="Impact, &#39;Arial Black&#39;, sans-serif" font-weight="900" font-size="98" fill="#D9342B" stroke="#2a1a06" stroke-width="10" paint-order="stroke" letter-spacing="4">
    MANGOTITLÁN
  </text>

  
  <g transform="translate(90 420) rotate(-2 450 280)">
    <rect x="14" y="20" width="900" height="560" rx="24" fill="#2a1a06" opacity="0.25"></rect>
    <image href="credencial-template.svg" x="0" y="0" width="900" height="560"></image>
    
    <image href="sello-mangotitlan.svg" x="540" y="320" width="280" height="280" opacity="0.85"></image>
  </g>

  
  <text x="540" y="1740" text-anchor="middle" font-family="Impact, &#39;Arial Black&#39;, sans-serif" font-weight="900" font-size="46" fill="#fff" stroke="#2a1a06" stroke-width="6" paint-order="stroke" letter-spacing="2">
    ¿Y TU, DE DÓNDE ERES?
  </text>
  <text x="540" y="1810" text-anchor="middle" font-family="Helvetica, Arial, sans-serif" font-weight="700" font-size="32" fill="#2a1a06" letter-spacing="3">
    HABITANTEDEMANGOTITLAN.APP
  </text>
  <text x="540" y="1860" text-anchor="middle" font-family="Helvetica, Arial, sans-serif" font-weight="700" font-size="26" fill="#2a1a06" opacity="0.7" letter-spacing="2">
    @radio_manguito_chupado
  </text>
</svg>